<svg version="1.1" id="Layer_1" xmlns="http://www.w3.org/2000/svg" xmlns:xlink="http://www.w3.org/1999/xlink" x="0px" y="0px"
	 width="100%" viewBox="0 0 640 640" enable-background="new 0 0 640 640" xml:space="preserve">
<path fill="#000000" opacity="1.000000" stroke="none" 
	d="
M212.000031,345.281616 
	C198.171219,345.300995 184.818848,344.831543 171.520172,345.473846 
	C158.016052,346.126129 151.133255,335.544586 154.300110,323.380432 
	C161.844559,294.401520 169.510330,265.454285 177.073212,236.480179 
	C183.459427,212.013992 189.784622,187.531860 196.103027,163.048065 
	C197.597702,157.256134 198.620758,151.320175 200.461914,145.645508 
	C202.870239,138.222748 206.608429,135.868561 214.311539,136.060547 
	C264.781677,137.318512 315.259521,136.343567 365.733215,136.576614 
	C386.050201,136.670410 406.368927,136.367706 426.686951,136.260452 
	C437.031494,136.205841 440.849854,139.102585 443.391296,148.940689 
	C456.704834,200.478104 470.000305,252.020172 483.328003,303.553925 
	C485.077454,310.318512 487.204895,316.992371 488.755432,323.799805 
	C491.517609,335.926849 486.891998,342.762085 474.724487,344.799866 
	C471.954102,345.263824 469.085724,345.268311 466.262299,345.270569 
	C430.774139,345.298584 395.285980,345.285492 359.797821,345.287842 
	C353.329865,345.288300 353.299652,345.309143 353.297150,351.623810 
	C353.285278,381.780396 353.384399,411.937683 353.177612,442.092896 
	C353.144867,446.863861 354.808258,448.064850 359.246704,447.970734 
	C368.548920,447.773438 377.875519,446.946411 387.157410,448.667755 
	C401.688477,451.362640 409.166809,460.157990 409.409271,474.886444 
	C409.494110,480.039948 410.063721,485.184601 410.185028,490.338623 
	C410.443054,501.304047 406.679504,505.242279 395.714233,505.253937 
	C351.229187,505.301361 306.743896,505.321381 262.259094,505.202393 
	C255.941498,505.185486 249.652328,506.347046 243.314667,505.399567 
	C236.371170,504.361511 233.696182,501.520294 233.640366,494.529907 
	C233.580490,487.032898 233.548813,479.534271 233.633194,472.037842 
	C233.784210,458.621857 241.497238,450.255188 254.699783,448.629456 
	C264.674866,447.401123 274.669128,447.930359 284.646149,448.010651 
	C289.476105,448.049530 290.885040,446.487885 290.853912,441.702271 
	C290.658905,411.713715 290.639893,381.722534 290.850800,351.734283 
	C290.885681,346.773560 289.652740,345.092407 284.471069,345.148956 
	C260.483093,345.410858 236.490784,345.274353 212.000031,345.281616 
M335.499969,488.721375 
	C349.988159,488.723572 364.476379,488.730316 378.964569,488.726746 
	C394.178070,488.723022 394.136230,488.722565 392.753448,473.589050 
	C392.329010,468.943909 389.939941,466.200134 385.432526,465.425629 
	C381.335236,464.721527 377.209045,464.308258 373.019379,464.315125 
	C336.715851,464.374695 300.412170,464.369629 264.108551,464.352478 
	C252.667328,464.347046 249.217499,467.797516 249.343765,479.313965 
	C249.433517,487.502747 250.635498,488.713135 259.061584,488.720245 
	C284.207703,488.741455 309.353821,488.723358 335.499969,488.721375 
M336.727386,397.500031 
	C336.721069,382.183838 336.658417,366.867310 336.744354,351.551636 
	C336.768677,347.215973 335.138245,345.032166 330.584656,345.141541 
	C324.428497,345.289429 318.265381,345.270874 312.107513,345.175232 
	C308.815552,345.124084 307.224304,346.316345 307.229980,349.816803 
	C307.280609,381.114929 307.269867,412.413208 307.209076,443.711334 
	C307.203400,446.640198 308.421021,447.910522 311.264526,448.179688 
	C317.916290,448.809448 324.544342,448.601257 331.203735,448.239868 
	C335.516083,448.005859 336.853210,446.109741 336.802216,441.950684 
	C336.624512,427.468994 336.729584,412.983887 336.727386,397.500031 
M294.494385,280.391052 
	C282.520660,280.361633 270.546906,280.313599 258.573181,280.319153 
	C256.282349,280.320221 253.796722,280.004608 253.295929,283.392334 
	C251.329224,296.696228 249.330215,309.993561 248.083145,323.391815 
	C247.753693,326.931396 249.115021,328.746643 252.794037,328.740601 
	C271.419708,328.709991 290.045502,328.691620 308.671082,328.732971 
	C311.637634,328.739563 312.910034,327.404907 312.911011,324.528320 
	C312.915375,311.390961 312.930908,298.253571 312.984619,285.116333 
	C312.997314,282.010132 311.499939,280.490967 308.461456,280.456848 
	C304.138336,280.408295 299.814606,280.410706 294.494385,280.391052 
M339.572601,328.771790 
	C355.724487,328.756653 371.877289,328.640656 388.027618,328.790985 
	C392.568024,328.833252 394.496735,327.302338 393.912689,322.646881 
	C392.340271,310.113281 390.899323,297.563202 389.410583,285.019104 
	C389.030670,281.817932 387.202606,280.393280 384.022095,280.421204 
	C379.360321,280.462158 374.697723,280.403015 370.035492,280.402557 
	C358.546082,280.401428 347.056641,280.395355 335.567291,280.423706 
	C332.749786,280.430664 330.012909,280.767853 330.003632,284.531006 
	C329.970306,298.017639 329.989136,311.504425 329.990051,324.991150 
	C329.990265,327.741791 331.464600,328.852997 334.105469,328.755219 
	C335.601654,328.699829 337.102173,328.761688 339.572601,328.771790 
M218.461456,328.755280 
	C221.294220,328.734436 224.126984,328.701569 226.959763,328.696350 
	C229.458878,328.691742 231.227539,327.615692 231.567215,325.065216 
	C233.345444,311.714020 235.050461,298.352997 236.762405,284.993042 
	C237.162033,281.874298 235.894180,280.351410 232.593079,280.362396 
	C217.095566,280.413940 201.597672,280.394073 186.100113,280.339020 
	C183.584335,280.330078 182.075684,281.194489 181.422150,283.773956 
	C178.233002,296.361145 174.866425,308.903717 171.726105,321.502808 
	C170.262253,327.375854 171.370636,328.687378 177.479675,328.718292 
	C190.810959,328.785736 204.142776,328.749786 218.461456,328.755280 
M407.854950,302.837036 
	C408.716583,309.432983 409.552460,316.032440 410.450562,322.623413 
	C410.908508,325.984131 411.942749,328.745544 416.198090,328.727112 
	C432.856628,328.654938 449.516602,328.780151 466.173706,328.606506 
	C470.739014,328.558899 472.154053,326.448486 471.071991,322.083710 
	C467.988739,309.646454 464.756775,297.246124 461.644989,284.815857 
	C460.939819,281.999084 459.338867,280.462585 456.409668,280.466583 
	C440.918518,280.487732 425.427399,280.538239 409.936249,280.541626 
	C407.164246,280.542236 406.011505,281.812561 406.247375,284.549652 
	C406.747101,290.348999 407.191010,296.153198 407.854950,302.837036 
M311.312317,217.177460 
	C296.043976,215.603867 280.750732,216.445282 265.465179,216.743866 
	C262.815125,216.795624 261.793762,218.660370 261.470276,221.043991 
	C259.771088,233.566025 258.100708,246.092133 256.341034,258.605682 
	C255.731567,262.939819 257.484558,264.725525 261.815430,264.697754 
	C276.806213,264.601624 291.798096,264.597839 306.789124,264.662323 
	C311.123779,264.680969 313.106293,263.041809 313.036407,258.442261 
	C312.854218,246.452225 313.008545,234.457214 312.995911,222.464233 
	C312.994171,220.818085 313.117462,219.106583 311.312317,217.177460 
M329.926392,236.500641 
	C329.937958,244.165573 330.008606,251.831055 329.934998,259.495178 
	C329.900726,263.063202 331.474762,264.672760 335.033752,264.660187 
	C350.030212,264.607178 365.026917,264.607758 380.023529,264.607178 
	C384.324799,264.606995 386.477997,262.964020 385.878815,258.226227 
	C384.313202,245.847321 382.987335,233.438187 381.554016,221.042465 
	C381.216064,218.119980 379.580017,216.509842 376.602966,216.504059 
	C362.606903,216.476852 348.610779,216.474289 334.614655,216.484390 
	C331.305756,216.486771 329.833435,218.177002 329.907379,221.504822 
	C330.011017,226.168091 329.930542,230.835449 329.926392,236.500641 
M412.560150,216.428055 
	C410.063293,216.434097 407.563629,216.366043 405.070129,216.460449 
	C398.348175,216.714951 397.455627,217.619675 398.448517,224.226974 
	C400.202911,235.901993 401.564819,247.615082 402.321411,259.392914 
	C402.548035,262.920807 404.342926,264.572266 407.688354,264.580872 
	C421.669830,264.616791 435.653961,264.734131 449.631836,264.501953 
	C455.036774,264.412140 456.054138,262.744568 454.736725,257.496155 
	C451.781433,245.722656 448.567657,234.012650 445.731018,222.211426 
	C444.682739,217.850403 442.413940,216.222336 438.011017,216.346725 
	C429.860779,216.576920 421.699677,216.423187 412.560150,216.428055 
M213.510223,216.395844 
	C210.016205,216.391678 206.520966,216.442963 203.028580,216.365341 
	C200.357452,216.305984 198.782379,217.173492 198.066772,220.051849 
	C194.859528,232.952194 191.603897,245.845535 188.017670,258.643890 
	C186.751862,263.161224 188.612411,264.567566 192.458603,264.587433 
	C206.600037,264.660431 220.742157,264.608276 234.884018,264.590698 
	C238.211472,264.586548 240.388199,263.064728 240.456482,259.594238 
	C240.705978,246.915451 243.571976,234.554733 244.973984,222.016388 
	C245.458344,217.684830 244.063477,216.315033 239.963409,216.376984 
	C231.479858,216.505188 222.992813,216.402527 213.510223,216.395844 
M329.913727,194.240845 
	C329.394440,199.062744 331.762360,200.753265 336.360260,200.667313 
	C345.005615,200.505707 353.656158,200.642166 362.304260,200.597305 
	C366.290466,200.576630 370.282928,200.533646 374.259521,200.288651 
	C377.198853,200.107559 378.722504,198.625641 378.322296,195.353378 
	C376.750061,182.497498 375.202393,169.636597 373.878632,156.753616 
	C373.512482,153.189987 371.700745,152.373352 368.609650,152.390442 
	C357.633362,152.451096 346.655792,152.484360 335.680237,152.375275 
	C331.424957,152.332962 329.797363,154.094009 329.862488,158.377823 
	C330.039459,170.016953 329.912750,181.660721 329.913727,194.240845 
M268.693207,164.058334 
	C267.303558,174.435425 265.981445,184.822266 264.487823,195.184372 
	C263.960510,198.842636 265.300873,200.602692 268.946411,200.601776 
	C281.929810,200.598495 294.913208,200.577850 307.896606,200.554398 
	C311.329224,200.548203 313.021912,199.014740 312.997070,195.371994 
	C312.910736,182.721603 312.907959,170.069382 313.037476,157.419525 
	C313.078583,153.408173 311.223206,152.279999 307.521973,152.345184 
	C298.868500,152.497543 290.209351,152.299911 281.554413,152.403183 
	C268.852386,152.554703 270.892853,150.613022 268.693207,164.058334 
M235.351379,200.614838 
	C237.344360,200.572205 239.337433,200.490677 241.330322,200.494629 
	C246.200302,200.504288 248.576630,198.752411 249.031433,193.249298 
	C250.013870,181.362076 251.831802,169.538055 253.513580,157.717438 
	C254.164780,153.140564 251.900879,152.314987 248.105331,152.357178 
	C239.298309,152.455093 230.481659,152.581970 221.684296,152.267273 
	C217.406815,152.114258 215.359329,153.609543 214.355057,157.731689 
	C211.369644,169.985596 208.074936,182.163788 204.980591,194.391678 
	C203.699951,199.452408 204.577835,200.604141 209.956711,200.664917 
	C218.098740,200.756912 226.243118,200.641083 235.351379,200.614838 
M432.332672,172.037567 
	C431.084625,166.866791 429.828735,161.697861 428.591858,156.524414 
	C427.995789,154.031357 426.875427,152.346756 423.895721,152.380157 
	C414.411743,152.486465 404.926208,152.449463 395.441254,152.468765 
	C391.850800,152.476074 389.889832,153.802094 390.236847,157.866241 
	C391.325409,170.614334 392.762421,183.315613 394.707092,195.960999 
	C395.150330,198.843506 396.742554,200.472885 399.684814,200.483154 
	C410.996826,200.522675 422.315155,200.726639 433.618408,200.412064 
	C438.800934,200.267838 439.473206,198.803955 438.109589,193.547287 
	C436.314606,186.627625 434.413086,179.735596 432.332672,172.037567 
z"/>
<path fill="#000000" opacity="1.000000" stroke="none" 
	d="
M477.459534,376.542542 
	C481.212006,380.344086 484.901062,383.732544 488.195618,387.468811 
	C491.693726,391.435974 491.212555,395.771820 487.461914,399.410034 
	C484.959869,401.837128 482.311951,402.361420 479.385132,400.336700 
	C469.441071,393.457581 461.073517,384.917633 453.636169,375.459503 
	C451.118988,372.258392 451.612885,368.787567 454.365204,365.935822 
	C457.046661,363.157471 460.403717,362.361786 463.918091,364.338409 
	C469.221161,367.321045 473.303314,371.725433 477.459534,376.542542 
z"/>
<path fill="#000000" opacity="1.000000" stroke="none" 
	d="
M167.695160,373.681458 
	C171.436340,370.621918 174.797043,367.632538 178.445221,365.049164 
	C181.976501,362.548584 185.442581,363.280762 188.167038,366.555145 
	C190.801895,369.721863 191.436874,373.326416 188.376450,376.462402 
	C180.606293,384.424377 172.743652,392.305756 164.666443,399.953705 
	C161.405518,403.041351 157.516968,402.364441 154.289825,399.508759 
	C150.913651,396.521240 150.704636,392.775085 153.172836,389.195709 
	C157.156403,383.418793 162.523514,378.870453 167.695160,373.681458 
z"/>
<path fill="#000000" opacity="1.000000" stroke="none" 
	d="
M417.798676,410.658356 
	C416.669189,401.323273 416.502411,392.413788 417.546844,383.457458 
	C418.097687,378.733826 421.008545,376.850250 425.100281,376.287415 
	C428.994690,375.751770 431.520142,377.994537 432.581573,381.472321 
	C435.666168,391.578796 434.832764,401.824005 432.727814,411.941162 
	C432.032562,415.282837 428.943207,417.018036 425.500427,417.010071 
	C421.588104,417.001038 418.996307,414.871613 417.798676,410.658356 
z"/>
<path fill="#000000" opacity="1.000000" stroke="none" 
	d="
M225.004883,402.839111 
	C224.770874,405.610199 224.665405,407.942474 224.283325,410.228516 
	C223.547699,414.629578 220.704895,417.111938 216.383301,416.998474 
	C212.156830,416.887482 209.237717,414.548615 208.639191,410.026703 
	C207.454941,401.079742 207.626816,392.121094 208.778717,383.203186 
	C209.362000,378.687408 212.592758,376.645630 216.880035,376.741058 
	C221.365936,376.840973 223.930298,379.532349 224.221283,383.972351 
	C224.622803,390.098907 224.758728,396.242889 225.004883,402.839111 
z"/>
</svg>